<svg width="16" height="16" viewBox="0 0 16 16" fill="none" xmlns="http://www.w3.org/2000/svg">
<path fill-rule="evenodd" clip-rule="evenodd" d="M12.9999 14.5H12.9149C3.08988 13.935 1.69488 5.645 1.49988 3.115C1.46815 2.71771 1.59583 2.32413 1.85474 2.02113C2.11365 1.71812 2.48251 1.53062 2.87988 1.5H5.63488C6.04469 1.4996 6.41326 1.74928 6.56488 2.13L7.32488 4C7.47446 4.37157 7.3879 4.79655 7.10488 5.08L6.03988 6.155C6.38065 8.09147 7.89431 9.60914 9.82988 9.955L10.9149 8.88C11.2026 8.60009 11.6299 8.51937 11.9999 8.675L13.8849 9.43C14.2597 9.58635 14.5028 9.95388 14.4999 10.36V13C14.4999 13.8284 13.8283 14.5 12.9999 14.5ZM2.99988 2.5C2.72374 2.5 2.49988 2.72386 2.49988 3V3.04C2.72988 6 4.20488 13 12.9699 13.5C13.1025 13.5082 13.233 13.4632 13.3325 13.375C13.4319 13.2869 13.4922 13.1627 13.4999 13.03V10.36L11.6149 9.605L10.1799 11.03L9.93988 11C5.58988 10.455 4.99988 6.105 4.99988 6.06L4.96988 5.82L6.38988 4.385L5.63988 2.5H2.99988Z" fill="#333333"/>
</svg>
