<svg width="14" height="12" viewBox="0 0 14 12" fill="none" xmlns="http://www.w3.org/2000/svg">
<path fill-rule="evenodd" clip-rule="evenodd" d="M1 0H13C13.5523 0 14 0.447715 14 1V11C14 11.5523 13.5523 12 13 12H1C0.447715 12 0 11.5523 0 11V1C0 0.447715 0.447715 0 1 0ZM13 1V11H1V1H13ZM9.2 6.9C10.3046 6.9 11.2 6.00457 11.2 4.9C11.2 3.79543 10.3046 2.9 9.2 2.9C8.09543 2.9 7.2 3.79543 7.2 4.9C7.2 6.00457 8.09543 6.9 9.2 6.9ZM2.2 3.4H5.7V4.4H2.2V3.4ZM2.2 5.4H4.2V6.4H2.2V5.4ZM10.7 7.4C11.5284 7.4 12.2 8.07157 12.2 8.9V9.9H11.2V8.9C11.2 8.62386 10.9761 8.4 10.7 8.4H7.7C7.42386 8.4 7.2 8.62386 7.2 8.9V9.9H6.2V8.9C6.2 8.07157 6.87157 7.4 7.7 7.4H10.7ZM10.2 4.9C10.2 4.34772 9.75229 3.9 9.2 3.9C8.64772 3.9 8.2 4.34772 8.2 4.9C8.2 5.45228 8.64772 5.9 9.2 5.9C9.75229 5.9 10.2 5.45228 10.2 4.9Z" fill="#333333"/>
</svg>
